/* XPM */
static char *_700638985666[] = {
/* columns rows colors chars-per-pixel */
"32 32 10 1 ",
"  c #4C2F49",
". c #6E4A48",
"X c #78514F",
"o c #3D253B",
"O c #543740",
"+ c #483040",
"@ c #25131A",
"# c #422C3B",
"$ c #4F3740",
"% c white",
/* pixels */
"   ............................ ",
"   ............................ ",
"   ............................ ",
"   ............................ ",
"   XXXXXXXXXXXXXXXXXXXXXXXXXXXX ",
"   XXXXXXXXXXXXXXXXXXXXXXXXXXXX ",
" ooOOOOOOOOOOOOOOOOOOOOOOOOOOOOo",
" ooOOOOOOOOOOOOOOOOOOOOOOOOOOOOo",
" ooOOOOOOOOOOOOOOOOOOOOOOOOOOOO ",
" ooOOOOOOOOOOOOOOOOOOOOOOOOOOOO ",
" oo++OOOOOOOOOOOOOOOOOOOOOOOO++o",
" oo++OOOOOOOOOOOOOOOOOOOOOOOO++o",
" @@ooooooooooooooooooooooooooooo",
" @@ooooooooooooooooooooooooooooo",
" oo++OOOOOOOOOOOOOOOOOOOOOOOO++o",
" oo++OOOOOOOOOOOOOOOOOOOOOOOO++o",
" ooOOOOOOOOOOOOOOOOOOOOOOOOOOOO@",
" ooOOOOOOOOOOOOOOOOOOOOOOOOOOOO@",
" @@++OOOOOOOOOOOOOOOOOOOOOOOO++o",
" @@++OOOOOOOOOOOOOOOOOOOOOOOO++o",
" oooooo@@@@@@@@@@@@@@@@@@@@oooo@",
" oooooo@@@@@@@@@@@@@@@@@@@@oooo@",
" @@##$$$$$$$$##@@##$$$$$$$$$$##o",
" @@##$$$$$$$$##@@##$$$$$$$$$$##o",
" @@$$$$$$$$$$$$@@$$$$$$$$$$$$$$@",
" @@$$$$$$$$$$$$@@$$$$$$$$$$$$$$@",
" @@############@@##############@",
" @@############@@##############@",
" @@@@@@@@@@@@@@@@@@@@@@@@@@@@@@@",
" @@@@@@@@@@@@@@@@@@@@@@@@@@@@@@@",
" @@@@@@@@@@@@@@@@@@@@@@@@@@@@@@@",
" @@@@@@@@@@@@@@@@@@@@@@@@@@@@@@@"
};
