/* XPM */
static char *_700638968493[] = {
/* columns rows colors chars-per-pixel */
"32 32 9 1 ",
"  c #25131A",
". c #362030",
"X c #3D253B",
"o c #BF704D",
"O c #CAE6F5",
"+ c #ADC1CF",
"@ c #A7D1E6",
"# c #62ABD4",
"$ c white",
/* pixels */
"  ..XXXXXXXXXXXXXXXXXXXXXXXXXXXX",
"  ..XXXXXXXXXXXXXXXXXXXXXXXXXXXX",
"  ..XXXXXXXXXXXXXXXXXXXXXXXXXXXX",
"  ..XXXXXXXXXXXXXXXXXXXXXXXXXXXX",
"  ..XXXXXXXXXX    XXXXXXXXXXXXXX",
"  ..XXXXXXXXXX    XXXXXXXXXXXXXX",
"  ..XXXXXX    oooo    XXXXXXXXXX",
"  ..XXXXXX    oooo    XXXXXXXXXX",
"  ..XXXXXX  OOOO++++  XXXXXXXXXX",
"  ..XXXXXX  OOOO++++  XXXXXXXXXX",
"  ..XXXXXXXX  ++++  XXXXXXXXXXXX",
"  ..XXXXXXXX  ++++  XXXXXXXXXXXX",
"  ..XXXXXX  OO@@@@OO  XXXXXXXXXX",
"  ..XXXXXX  OO@@@@OO  XXXXXXXXXX",
"  ..XXXX  OO@@@@####OO  XXXXXXXX",
"  ..XXXX  OO@@@@####OO  XXXXXXXX",
"  ..XXXX  OO@@######++  XXXXXXXX",
"  ..XXXX  OO@@######++  XXXXXXXX",
"  ..XXXX  OOOO####++++  XXXXXXXX",
"  ..XXXX  OOOO####++++  XXXXXXXX",
"  ..XXXXXX  OO++++++  XXXXXXXXXX",
"  ..XXXXXX  OO++++++  XXXXXXXXXX",
"  ..XXXXXXXX        XXXX........",
"  ..XXXXXXXX        XXXX........",
"  ..XXXXXXXXXX..XXXXXXXXXXXXXX..",
"  ..XXXXXXXXXX..XXXXXXXXXXXXXX..",
"  ..XXXXXXXXXX..XXXXXXXXXXXXXX..",
"  ..XXXXXXXXXX..XXXXXXXXXXXXXX..",
"  ..............................",
"  ..............................",
"                                ",
"                                "
};
