/* XPM */
static char *_700638953056[] = {
/* columns rows colors chars-per-pixel */
"32 32 9 1 ",
"  c #3D253B",
". c #25131A",
"X c #895A45",
"o c #BF704D",
"O c #ADC1CF",
"+ c #523B40",
"@ c #90919E",
"# c #724736",
"$ c white",
/* pixels */
" .............................. ",
" .............................. ",
" XXooooXXooooXXooooXXooooXXoooo.",
" XXooooXXooooXXooooXXooooXXoooo.",
" XXooooXXooooXXooooXXooooXXoooo.",
" XXooooXXooooXXooooXXooooXXoooo.",
" ...............................",
" ...............................",
" ..OO..++XXXX++XXXX++XXXX++XXXX.",
" ..OO..++XXXX++XXXX++XXXX++XXXX.",
" ..OO..++XXXX++XXXX++XXXX++XXXX.",
" ..OO..++XXXX++XXXX++XXXX++XXXX.",
" ..OO..++XXXX++XXXX++XXXX++XXXX.",
" ..OO..++XXXX++XXXX++XXXX++XXXX.",
" ..OO..........XXXX++XX..@@OOOO.",
" ..OO..........XXXX++XX..@@OOOO.",
" ..@@@@@@OOOOOO..XX++..@@OOOO@@.",
" ..@@@@@@OOOOOO..XX++..@@OOOO@@.",
" ..@@OO......OO..XX++XX.........",
" ..@@OO......OO..XX++XX.........",
" ..OO..++..@@OOOO..++XXXX++XXXX.",
" ..OO..++..@@OOOO..++XXXX++XXXX.",
" ..OO..++@@XX++..OO..XX..@@OOOO.",
" ..OO..++@@XX++..OO..XX..@@OOOO.",
" ..OO..++@@XX++..@@....@@OOOO@@.",
" ..OO..++@@XX++..@@....@@OOOO@@.",
" ..OO..++XX@@@@@@..++##.........",
" ..OO..++XX@@@@@@..++##.........",
" ..OOOO..####++####++####++####.",
" ..OOOO..####++####++####++####.",
" ...............................",
" ..............................."
};
